<svg xmlns="http://www.w3.org/2000/svg" viewBox="0 0 256 256" role="img" aria-label="BoardGameGeek">
  <title>BoardGameGeek</title>
  <rect width="256" height="256" rx="56" fill="currentColor" />
  <!-- Simple "meeple" glyph (monochrome) so it inherits text color via currentColor -->
  <g fill="#ffffff">
    <circle cx="92" cy="92" r="18" />
    <circle cx="164" cy="92" r="18" />
    <path d="M128 120c-38 0-70 28-76 64 0 10 8 18 18 18h20c6 0 11-3 14-8 4-7 13-12 24-12s20 5 24 12c3 5 8 8 14 8h20c10 0 18-8 18-18-6-36-38-64-76-64z" />
    <path d="M70 198c6-28 28-50 58-50s52 22 58 50H70z" opacity=".25" />
  </g>
</svg>
